<?xml version="1.0" encoding="UTF-8"?>
<svg xmlns="http://www.w3.org/2000/svg" xmlns:xlink="http://www.w3.org/1999/xlink" width="656.88pt" height="247.25pt" viewBox="0 0 656.88 247.25" version="1.1">
<defs>
<clipPath id="clip1">
  <path d="M 0 0 L 656.878906 0 L 656.878906 247.25 L 0 247.25 Z M 0 0 "/>
</clipPath>
</defs>
<g id="surface1">
<g clip-path="url(#clip1)" clip-rule="nonzero">
<path style=" stroke:none;fill-rule:nonzero;fill:rgb(94.898987%,38.798523%,21.998596%);fill-opacity:1;" d="M 608.449219 207.261719 C 608.449219 203.710938 608.226563 199.484375 607.5625 194.820313 C 594.453125 199.929688 579.792969 206.375 579.792969 215.257813 C 579.792969 223.476563 585.789063 227.699219 592.234375 227.699219 C 602.230469 227.699219 608.449219 217.035156 608.449219 207.261719 Z M 303.445313 93.523438 C 295.003906 99.078125 289.007813 111.964844 289.007813 126.179688 C 289.007813 154.835938 298.78125 154.613281 302.554688 154.171875 C 306.554688 153.726563 311.445313 151.285156 314.554688 146.171875 C 317.441406 141.507813 318.773438 136.84375 319.441406 129.960938 C 320.328125 119.515625 324.992188 79.085938 303.445313 93.523438 Z M 324.992188 207.261719 C 324.992188 203.710938 324.769531 199.484375 324.109375 194.820313 C 311 199.929688 296.339844 206.375 296.339844 215.257813 C 296.339844 223.476563 302.335938 227.699219 308.777344 227.699219 C 318.773438 227.699219 324.992188 217.035156 324.992188 207.261719 Z M 244.355469 61.535156 C 237.691406 61.535156 230.804688 58.871094 230.804688 42.65625 C 230.804688 28.4375 244.578125 21.550781 252.574219 21.550781 C 260.128906 21.550781 266.570313 25.105469 266.570313 33.988281 C 266.792969 52.429688 253.683594 61.535156 244.355469 61.535156 Z M 144.613281 174.382813 C 140.171875 178.382813 134.171875 181.269531 126.175781 181.269531 C 107.519531 181.269531 97.300781 168.609375 97.300781 147.726563 C 97.300781 135.953125 100.851563 119.960938 100.851563 109.515625 C 100.851563 103.519531 99.519531 99.296875 95.519531 99.296875 C 86.191406 99.296875 77.972656 127.957031 77.972656 164.832031 C 77.972656 171.050781 73.753906 181.046875 51.980469 181.046875 C 48.648438 181.046875 47.09375 178.382813 46.871094 173.71875 C 41.984375 177.9375 35.765625 180.160156 29.324219 180.160156 C 7.554688 180.160156 0 163.054688 0 141.730469 C 0 123.289063 2.222656 91.304688 5.773438 83.972656 C 9.332031 76.414063 20.882813 67.976563 27.988281 67.976563 C 31.769531 67.976563 36.429688 70.640625 36.429688 77.308594 C 36.429688 84.863281 31.101563 102.410156 31.101563 126.398438 C 31.101563 150.390625 33.765625 157.503906 39.09375 157.503906 C 44.425781 157.503906 45.761719 150.613281 48.648438 146.617188 C 49.089844 141.953125 49.316406 137.285156 49.535156 132.398438 C 49.757813 94.410156 50.425781 90.414063 51.980469 85.082031 C 53.980469 74.195313 70.863281 66.863281 78.191406 66.863281 C 83.300781 66.863281 85.96875 69.753906 85.96875 75.085938 C 85.96875 79.976563 82.632813 86.636719 81.300781 96.191406 C 86.632813 84.191406 100.628906 68.867188 113.511719 68.867188 C 127.949219 68.867188 131.726563 79.753906 131.726563 93.300781 C 131.726563 107.960938 127.949219 122.398438 127.949219 138.394531 C 127.949219 150.613281 129.953125 156.164063 133.726563 157.722656 C 133.503906 156.609375 133.28125 155.503906 133.28125 154.167969 C 133.28125 140.617188 147.5 129.511719 153.71875 129.511719 C 158.160156 129.511719 159.492188 133.507813 159.9375 139.953125 C 160.605469 149.945313 165.046875 164.832031 176.820313 164.832031 C 183.261719 164.832031 187.039063 161.054688 187.039063 155.054688 C 187.039063 147.285156 179.933594 139.953125 171.046875 132.398438 C 169.9375 131.730469 168.15625 130.402344 165.714844 128.621094 C 152.832031 119.292969 139.058594 109.292969 139.28125 91.96875 C 139.503906 70.863281 156.164063 60.644531 180.15625 60.867188 C 204.144531 61.089844 221.695313 76.859375 221.472656 90.632813 C 221.25 104.183594 207.035156 115.292969 200.8125 115.066406 C 196.371094 115.066406 195.039063 111.074219 194.59375 104.628906 C 193.925781 94.632813 189.707031 79.527344 177.933594 79.527344 C 171.488281 79.527344 167.714844 83.078125 167.714844 89.078125 C 167.714844 97.742188 175.710938 107.960938 187.039063 115.066406 C 187.261719 115.292969 187.703125 115.511719 187.929688 115.734375 C 201.925781 123.511719 215.03125 134.617188 215.03125 151.949219 C 215.03125 173.050781 198.589844 183.269531 174.601563 183.269531 C 162.386719 183.9375 151.945313 180.160156 144.613281 174.382813 Z M 550.914063 153.28125 C 550.246094 149.503906 550.027344 145.726563 550.027344 141.957031 C 550.027344 123.738281 552.246094 91.75 555.578125 84.417969 C 559.355469 76.640625 570.90625 68.425781 578.015625 68.425781 C 581.792969 68.425781 586.457031 71.089844 586.457031 77.753906 C 586.457031 85.308594 581.125 102.855469 581.125 126.847656 C 581.125 150.617188 584.011719 157.949219 590.234375 157.949219 C 596.453125 157.949219 598.230469 149.726563 598.230469 141.957031 C 598.230469 123.738281 600.675781 91.753906 604.230469 84.421875 C 607.78125 76.644531 619.558594 68.425781 626.664063 68.425781 C 630.21875 68.425781 634.664063 71.089844 634.664063 77.753906 C 634.664063 85.308594 629.554688 102.859375 629.554688 126.847656 C 629.554688 140.179688 630.886719 154.171875 632.664063 166.613281 C 645.769531 155.507813 645.550781 144.621094 651.546875 144.621094 C 653.992188 144.621094 656.878906 147.289063 656.878906 152.394531 C 656.878906 158.835938 653.324219 170.835938 634.441406 182.382813 C 635.773438 191.714844 636.664063 199.488281 636.664063 205.042969 C 636.664063 219.703125 629.777344 247.25 588.015625 247.25 C 562.910156 247.25 551.808594 233.257813 551.808594 220.371094 C 551.808594 197.488281 578.464844 190.601563 605.34375 180.605469 L 602.453125 167.945313 C 598.011719 174.609375 590.683594 180.382813 579.578125 180.382813 C 568.910156 180.382813 561.804688 176.160156 557.140625 169.496094 C 552.472656 175.273438 545.589844 180.382813 535.371094 180.382813 C 521.816406 180.382813 513.820313 173.722656 509.824219 163.722656 C 504.9375 171.722656 495.828125 180.382813 482.277344 180.382813 C 470.949219 180.382813 462.953125 176.160156 457.84375 169.277344 C 453.175781 175.273438 446.066406 180.382813 435.628906 180.382813 C 414.304688 180.382813 406.527344 163.28125 406.527344 141.953125 C 406.527344 130.179688 410.527344 112.628906 410.527344 101.523438 C 410.527344 95.300781 409.414063 91.085938 405.191406 91.085938 C 390.980469 91.085938 389.199219 124.847656 389.199219 147.0625 C 389.199219 151.28125 389.425781 155.503906 389.425781 164.164063 C 389.425781 170.386719 385.203125 180.382813 363.433594 180.382813 C 361.210938 180.382813 359.878906 179.050781 358.992188 176.605469 C 356.546875 178.605469 353.882813 180.605469 350.992188 182.160156 C 352.324219 191.488281 353.214844 199.261719 353.214844 204.816406 C 353.214844 219.476563 346.328125 247.023438 304.5625 247.023438 C 279.460938 247.023438 268.355469 233.03125 268.355469 220.144531 C 268.355469 197.261719 295.011719 190.378906 321.890625 180.382813 C 321.449219 177.050781 320.558594 173.71875 319.894531 170.609375 C 313.675781 176.605469 305.230469 179.9375 296.570313 180.160156 C 285.683594 180.160156 278.132813 174.605469 273.023438 166.609375 C 268.578125 173.496094 261.023438 180.160156 249.253906 180.160156 C 227.484375 180.160156 219.929688 163.054688 219.929688 141.730469 C 219.929688 123.289063 222.148438 91.304688 225.703125 83.972656 C 229.257813 76.414063 240.8125 67.976563 247.695313 67.976563 C 251.472656 67.976563 256.136719 70.640625 256.136719 77.308594 C 256.136719 84.863281 250.808594 102.410156 250.808594 126.398438 C 250.808594 150.390625 253.472656 157.503906 258.800781 157.503906 C 262.582031 157.503906 264.578125 153.945313 266.355469 150.394531 C 265.023438 144.394531 264.136719 138.175781 264.136719 132.175781 C 264.136719 84.414063 290.796875 68.199219 308.5625 68.199219 C 319.671875 68.199219 324.339844 72.421875 326.554688 76.640625 C 331.445313 71.976563 338.332031 68.199219 343.21875 68.199219 C 346.773438 68.199219 351.660156 70.867188 351.660156 77.53125 C 351.660156 85.085938 346.109375 102.632813 346.109375 126.625 C 346.109375 141.285156 347.441406 154.394531 349.21875 166.386719 C 352.328125 163.722656 354.992188 160.835938 357.4375 157.503906 C 357.4375 122.40625 365.878906 23.550781 369.433594 15.996094 C 372.984375 8.445313 384.757813 0.226563 391.871094 0.226563 C 395.199219 0.226563 399.863281 2.894531 399.863281 9.558594 C 399.863281 14.445313 394.089844 52.652344 390.757813 84.863281 C 396.757813 76.199219 406.527344 68.421875 418.082031 68.421875 C 436.078125 68.421875 439.851563 81.972656 439.851563 97.746094 C 439.851563 109.742188 437.40625 121.292969 437.40625 136.175781 C 437.40625 152.617188 441.40625 157.945313 445.625 157.945313 C 448.511719 157.945313 450.292969 156.167969 451.847656 153.722656 C 451.179688 149.949219 450.734375 146.171875 450.734375 142.171875 C 450.734375 133.066406 452.289063 107.964844 454.957031 83.753906 C 448.289063 83.527344 442.070313 82.417969 442.070313 76.863281 C 442.070313 74.421875 448.066406 70.867188 456.511719 67.3125 C 458.285156 49.984375 460.289063 35.324219 461.621094 32.65625 C 465.394531 25.105469 476.949219 16.886719 483.835938 16.886719 C 487.609375 16.886719 492.273438 19.550781 492.273438 26.21875 C 492.273438 29.328125 490.722656 41.546875 488.5 56.648438 C 494.941406 54.871094 502.492188 50.207031 507.601563 50.207031 C 510.269531 50.207031 510.9375 52.871094 510.9375 55.316406 C 510.9375 61.089844 507.160156 71.53125 505.160156 73.53125 C 501.164063 77.53125 495.164063 79.308594 485.609375 80.863281 C 483.613281 98.855469 481.613281 116.847656 481.613281 126.625 C 481.613281 150.394531 486.277344 157.726563 492.054688 157.726563 C 501.386719 157.726563 502.273438 147.726563 506.71875 145.0625 C 506.71875 143.949219 506.71875 142.839844 506.71875 141.730469 C 506.71875 123.515625 516.9375 23.328125 520.488281 15.773438 C 524.046875 8.222656 535.816406 0.00390625 542.925781 0.00390625 C 546.480469 0.00390625 551.367188 2.671875 551.367188 9.335938 C 551.367188 16.886719 537.816406 102.632813 537.816406 126.402344 C 537.816406 150.171875 540.261719 157.503906 545.816406 157.503906 C 547.804688 157.722656 549.582031 155.722656 550.914063 153.28125 Z M 24.65625 61.535156 C 17.992188 61.535156 11.105469 58.871094 11.105469 42.65625 C 11.105469 28.214844 24.878906 21.550781 32.875 21.550781 C 40.429688 21.550781 46.871094 25.105469 46.871094 33.988281 C 46.871094 52.429688 33.765625 61.535156 24.65625 61.535156 "/>
</g>
</g>
</svg>
